<svg width="73" height="16" viewBox="0 0 73 16" fill="none" xmlns="http://www.w3.org/2000/svg">
<path d="M23.4243 8.70557H21.0693V7.22021H23.4243C23.7882 7.22021 24.0845 7.16097 24.313 7.04248C24.5415 6.91976 24.7087 6.75049 24.8145 6.53467C24.9202 6.31885 24.9731 6.07552 24.9731 5.80469C24.9731 5.52962 24.9202 5.2736 24.8145 5.03662C24.7087 4.79964 24.5415 4.60921 24.313 4.46533C24.0845 4.32145 23.7882 4.24951 23.4243 4.24951H21.7295V12H19.8252V2.75781H23.4243C24.1479 2.75781 24.7679 2.889 25.2842 3.15137C25.8047 3.40951 26.2025 3.76709 26.4775 4.22412C26.7526 4.68115 26.8901 5.20378 26.8901 5.79199C26.8901 6.38867 26.7526 6.90495 26.4775 7.34082C26.2025 7.77669 25.8047 8.11312 25.2842 8.3501C24.7679 8.58708 24.1479 8.70557 23.4243 8.70557ZM29.918 6.62988V12H28.0898V5.13184H29.8101L29.918 6.62988ZM31.9873 5.0874L31.9556 6.78223C31.8667 6.76953 31.7588 6.75895 31.6318 6.75049C31.5091 6.73779 31.397 6.73145 31.2954 6.73145C31.0373 6.73145 30.813 6.7653 30.6226 6.83301C30.4364 6.89648 30.2798 6.9917 30.1528 7.11865C30.0301 7.24561 29.937 7.40007 29.8735 7.58203C29.8143 7.764 29.7804 7.97135 29.772 8.2041L29.4038 8.08984C29.4038 7.64551 29.4482 7.23714 29.5371 6.86475C29.626 6.48812 29.755 6.16016 29.9243 5.88086C30.0978 5.60156 30.3094 5.38574 30.5591 5.2334C30.8088 5.08105 31.0944 5.00488 31.416 5.00488C31.5176 5.00488 31.6213 5.01335 31.7271 5.03027C31.8328 5.04297 31.9196 5.06201 31.9873 5.0874ZM35.8848 12.127C35.3516 12.127 34.8734 12.0423 34.4502 11.873C34.027 11.6995 33.6673 11.4604 33.3711 11.1558C33.0791 10.8511 32.8548 10.4977 32.6982 10.0957C32.5417 9.68945 32.4634 9.25781 32.4634 8.80078V8.54688C32.4634 8.02637 32.5374 7.55029 32.6855 7.11865C32.8337 6.68701 33.0452 6.3125 33.3203 5.99512C33.5996 5.67773 33.9382 5.43441 34.3359 5.26514C34.7337 5.09163 35.1823 5.00488 35.6816 5.00488C36.1683 5.00488 36.5999 5.08529 36.9766 5.24609C37.3532 5.4069 37.6685 5.63542 37.9224 5.93164C38.1805 6.22786 38.3752 6.58333 38.5063 6.99805C38.6375 7.40853 38.7031 7.86556 38.7031 8.36914V9.13086H33.2441V7.91211H36.9067V7.77246C36.9067 7.51855 36.8602 7.29215 36.7671 7.09326C36.6782 6.89014 36.5428 6.72933 36.3608 6.61084C36.1789 6.49235 35.9461 6.43311 35.6626 6.43311C35.4214 6.43311 35.214 6.486 35.0405 6.5918C34.867 6.69759 34.7253 6.8457 34.6152 7.03613C34.5094 7.22656 34.429 7.45085 34.374 7.70898C34.3232 7.96289 34.2979 8.24219 34.2979 8.54688V8.80078C34.2979 9.07585 34.3359 9.32975 34.4121 9.5625C34.4925 9.79525 34.6047 9.99626 34.7485 10.1655C34.8966 10.3348 35.0744 10.466 35.2817 10.5591C35.4933 10.6522 35.7324 10.6987 35.999 10.6987C36.3291 10.6987 36.6359 10.6353 36.9194 10.5083C37.2072 10.3771 37.4548 10.1803 37.6621 9.91797L38.5508 10.8828C38.4069 11.0902 38.2101 11.2891 37.9604 11.4795C37.715 11.6699 37.4188 11.8265 37.0718 11.9492C36.7248 12.0677 36.3291 12.127 35.8848 12.127ZM41.5723 6.55371V12H39.7378V5.13184H41.458L41.5723 6.55371ZM41.3184 8.32471H40.8105C40.8105 7.84652 40.8677 7.40641 40.9819 7.00439C41.1004 6.59814 41.2718 6.24691 41.4961 5.95068C41.7246 5.65023 42.006 5.41748 42.3403 5.25244C42.6746 5.0874 43.0618 5.00488 43.502 5.00488C43.8066 5.00488 44.0859 5.05143 44.3398 5.14453C44.5938 5.2334 44.8117 5.37516 44.9937 5.56982C45.1799 5.76025 45.3237 6.00993 45.4253 6.31885C45.5269 6.62354 45.5776 6.98958 45.5776 7.41699V12H43.7495V7.62012C43.7495 7.30697 43.7072 7.06576 43.6226 6.89648C43.5379 6.72721 43.4173 6.60872 43.2607 6.54102C43.1084 6.47331 42.9243 6.43945 42.7085 6.43945C42.4715 6.43945 42.2642 6.48812 42.0864 6.58545C41.9129 6.68278 41.769 6.8182 41.6548 6.9917C41.5405 7.16097 41.4559 7.35986 41.4009 7.58838C41.3459 7.81689 41.3184 8.06234 41.3184 8.32471ZM45.4062 8.11523L44.7524 8.19775C44.7524 7.74919 44.8075 7.33236 44.9175 6.94727C45.0317 6.56217 45.1989 6.22363 45.4189 5.93164C45.6432 5.63965 45.9204 5.41325 46.2505 5.25244C46.5806 5.0874 46.9614 5.00488 47.3931 5.00488C47.7231 5.00488 48.0236 5.05355 48.2944 5.15088C48.5653 5.24398 48.7959 5.39421 48.9863 5.60156C49.181 5.80469 49.3291 6.07129 49.4307 6.40137C49.5365 6.73145 49.5894 7.13558 49.5894 7.61377V12H47.7549V7.61377C47.7549 7.29639 47.7126 7.05518 47.6279 6.89014C47.5475 6.72087 47.429 6.60449 47.2725 6.54102C47.1201 6.47331 46.9382 6.43945 46.7266 6.43945C46.5065 6.43945 46.314 6.48389 46.1489 6.57275C45.9839 6.65739 45.8464 6.77588 45.7363 6.92822C45.6263 7.08057 45.5438 7.2583 45.4888 7.46143C45.4338 7.66032 45.4062 7.87826 45.4062 8.11523ZM52.9346 5.13184V12H51.1001V5.13184H52.9346ZM50.9858 3.3418C50.9858 3.0752 51.0789 2.85514 51.2651 2.68164C51.4513 2.50814 51.701 2.42139 52.0142 2.42139C52.3231 2.42139 52.5706 2.50814 52.7568 2.68164C52.9473 2.85514 53.0425 3.0752 53.0425 3.3418C53.0425 3.6084 52.9473 3.82845 52.7568 4.00195C52.5706 4.17546 52.3231 4.26221 52.0142 4.26221C51.701 4.26221 51.4513 4.17546 51.2651 4.00195C51.0789 3.82845 50.9858 3.6084 50.9858 3.3418ZM58.5078 10.356V5.13184H60.3359V12H58.6157L58.5078 10.356ZM58.7109 8.94678L59.2505 8.93408C59.2505 9.39111 59.1976 9.81641 59.0918 10.21C58.986 10.5993 58.8273 10.9378 58.6157 11.2256C58.4041 11.5091 58.1375 11.7313 57.8159 11.8921C57.4943 12.0487 57.1156 12.127 56.6797 12.127C56.3454 12.127 56.0365 12.0804 55.7529 11.9873C55.4736 11.89 55.2324 11.7397 55.0293 11.5366C54.8304 11.3293 54.6738 11.0648 54.5596 10.7432C54.4495 10.4173 54.3945 10.0259 54.3945 9.56885V5.13184H56.2227V9.58154C56.2227 9.78467 56.2459 9.95605 56.2925 10.0957C56.3433 10.2354 56.4131 10.3496 56.502 10.4385C56.5908 10.5273 56.6945 10.5908 56.813 10.6289C56.9357 10.667 57.0711 10.686 57.2192 10.686C57.5959 10.686 57.8921 10.6099 58.1079 10.4575C58.328 10.3052 58.4824 10.0978 58.5713 9.83545C58.6644 9.56885 58.7109 9.27262 58.7109 8.94678ZM63.5605 6.55371V12H61.7261V5.13184H63.4463L63.5605 6.55371ZM63.3066 8.32471H62.7988C62.7988 7.84652 62.856 7.40641 62.9702 7.00439C63.0887 6.59814 63.2601 6.24691 63.4844 5.95068C63.7129 5.65023 63.9943 5.41748 64.3286 5.25244C64.6629 5.0874 65.0501 5.00488 65.4902 5.00488C65.7949 5.00488 66.0742 5.05143 66.3281 5.14453C66.582 5.2334 66.8 5.37516 66.9819 5.56982C67.1681 5.76025 67.312 6.00993 67.4136 6.31885C67.5151 6.62354 67.5659 6.98958 67.5659 7.41699V12H65.7378V7.62012C65.7378 7.30697 65.6955 7.06576 65.6108 6.89648C65.5262 6.72721 65.4056 6.60872 65.249 6.54102C65.0967 6.47331 64.9126 6.43945 64.6968 6.43945C64.4598 6.43945 64.2524 6.48812 64.0747 6.58545C63.9012 6.68278 63.7573 6.8182 63.6431 6.9917C63.5288 7.16097 63.4442 7.35986 63.3892 7.58838C63.3341 7.81689 63.3066 8.06234 63.3066 8.32471ZM67.3945 8.11523L66.7407 8.19775C66.7407 7.74919 66.7957 7.33236 66.9058 6.94727C67.02 6.56217 67.1872 6.22363 67.4072 5.93164C67.6315 5.63965 67.9087 5.41325 68.2388 5.25244C68.5688 5.0874 68.9497 5.00488 69.3813 5.00488C69.7114 5.00488 70.0119 5.05355 70.2827 5.15088C70.5535 5.24398 70.7842 5.39421 70.9746 5.60156C71.1693 5.80469 71.3174 6.07129 71.4189 6.40137C71.5247 6.73145 71.5776 7.13558 71.5776 7.61377V12H69.7432V7.61377C69.7432 7.29639 69.7008 7.05518 69.6162 6.89014C69.5358 6.72087 69.4173 6.60449 69.2607 6.54102C69.1084 6.47331 68.9264 6.43945 68.7148 6.43945C68.4948 6.43945 68.3022 6.48389 68.1372 6.57275C67.9722 6.65739 67.8346 6.77588 67.7246 6.92822C67.6146 7.08057 67.5321 7.2583 67.4771 7.46143C67.422 7.66032 67.3945 7.87826 67.3945 8.11523Z" fill="#FF8800"/>
<path d="M3.49994 2C3.40716 2 3.31622 2.02582 3.23727 2.07456C3.15833 2.12331 3.09451 2.19305 3.05294 2.276L1.05294 6.276C1.00969 6.36212 0.992247 6.45891 1.00271 6.55471C1.01318 6.65051 1.05111 6.74125 1.11194 6.816L7.61194 14.816C7.65882 14.8737 7.71798 14.9202 7.7851 14.9521C7.85222 14.9841 7.92561 15.0006 7.99994 15.0006C8.07427 15.0006 8.14767 14.9841 8.21479 14.9521C8.28191 14.9202 8.34106 14.8737 8.38794 14.816L14.8879 6.816C14.9489 6.74135 14.987 6.65067 14.9977 6.55486C15.0083 6.45906 14.9911 6.36222 14.9479 6.276L12.9479 2.276C12.9063 2.1929 12.8423 2.12305 12.7632 2.0743C12.6841 2.02555 12.5929 1.99982 12.4999 2H3.49994ZM2.30894 6L3.80894 3H5.85894L5.10894 6H2.30894ZM2.54994 7H5.13294L6.74594 12.164L2.54994 7ZM6.17994 7H9.81994L7.99994 12.823L6.17994 7ZM10.8679 7H13.4499L9.25394 12.164L10.8679 7ZM13.6909 6H10.8909L10.1409 3H12.1909L13.6909 6ZM9.85994 6H6.13994L6.88994 3H9.10994L9.85994 6Z" fill="#FF8800"/>
</svg>
